# xmcd
#
# Track frame offsets:
#	150
#	11769
#	22815
#	33288
#	43091
#	55744
#	67083
#	79574
#	90811
#	101097
#
# Disc length: 1519 seconds
#
# Revision: 0
# Processed by: cddbd v1.5PL3 Copyright (c) Steve Scherf et al.
# Submitted via: dBpowerAMP V4.0
#
DISCID=6d05ed0a
DTITLE=Patsy Cline - Country
DYEAR=1900
DGENRE=Country
TTITLE0=Walkin After Midnight
TTITLE1=There He Goes
TTITLE2=Lovesick Blues
TTITLE3=I'm Blue Again
TTITLE4=Just A Closer Walk With Thee
TTITLE5=Crazy Dreams
TTITLE6=A Poor Man's Roses (Or A Rich Man's Gold)
TTITLE7=Just Out Of Reach
TTITLE8=Pick Me Up On Your Way Down
TTITLE9=Life's Railway To Heaven
EXTD=
EXTT0=
EXTT1=
EXTT2=
EXTT3=
EXTT4=
EXTT5=
EXTT6=
EXTT7=
EXTT8=
EXTT9=
PLAYORDER=
